<?xml version="1.0" encoding="UTF-8" standalone="no"?>
<!-- Created with Inkscape (http://www.inkscape.org/) -->

<svg
   xmlns:dc="http://purl.org/dc/elements/1.1/"
   xmlns:cc="http://creativecommons.org/ns#"
   xmlns:rdf="http://www.w3.org/1999/02/22-rdf-syntax-ns#"
   xmlns:svg="http://www.w3.org/2000/svg"
   xmlns="http://www.w3.org/2000/svg"
   xmlns:sodipodi="http://sodipodi.sourceforge.net/DTD/sodipodi-0.dtd"
   xmlns:inkscape="http://www.inkscape.org/namespaces/inkscape"
   width="210mm"
   height="297mm"
   viewBox="0 0 210 297"
   version="1.1"
   id="svg8"
   inkscape:version="0.92.3 (2405546, 2018-03-11)"
   sodipodi:docname="V-Logo.svg">
  <defs
     id="defs2" />
  <sodipodi:namedview
     id="base"
     pagecolor="#ffffff"
     bordercolor="#666666"
     borderopacity="1.0"
     inkscape:pageopacity="0.0"
     inkscape:pageshadow="2"
     inkscape:zoom="1.4"
     inkscape:cx="604.45295"
     inkscape:cy="931.85766"
     inkscape:document-units="mm"
     inkscape:current-layer="g3733"
     showgrid="false"
     inkscape:window-width="1920"
     inkscape:window-height="1017"
     inkscape:window-x="3832"
     inkscape:window-y="-8"
     inkscape:window-maximized="1" />
  <metadata
     id="metadata5">
    <rdf:RDF>
      <cc:Work
         rdf:about="">
        <dc:format>image/svg+xml</dc:format>
        <dc:type
           rdf:resource="http://purl.org/dc/dcmitype/StillImage" />
        <dc:title></dc:title>
      </cc:Work>
    </rdf:RDF>
  </metadata>
  <g
     inkscape:label="Layer 1"
     inkscape:groupmode="layer"
     id="layer1">
    <g
       id="g3733"
       transform="matrix(0.26458333,0,0,0.26458333,16.358811,9.2717567)">
      <path
         id="path4"
         d="m 198.1,54.164335 c -0.4,1.3 -0.7,2.5 -1.1,3.7 -2.9,9.4 -5.8,18.9 -8.6,28.3 -1.9,6.200003 -3.8,12.500003 -5.7,18.700005 -3.7,12.1 -7.4,24.2 -11.1,36.3 -5.5,18 -11,35.9 -16.5,53.9 -3.7,12.1 -7.3,24.1 -11,36.2 -2.1,6.8 -4.2,13.6 -6.3,20.4 -0.3,0.9 -0.7,1.2 -1.6,1.2 -13.6,0 -27.2,0 -40.800003,0 -10.999997,0 -21.899997,-0.3 -32.899997,-0.3 -1.5,0 -2.1,-0.5 -2.5,-1.9 -1.8,-5.9 -3.6,-11.9 -5.4,-17.8 -3.4,-11.1 -6.8,-22.2 -10.2,-33.3 -3.3,-10.7 -6.5,-21.5 -9.8,-32.3 -3.399999,-11.1 -6.8,-22.2 -10.2,-33.3 -3.3,-10.7 -6.599999,-21.5 -9.899999,-32.2 -3.4,-11.100005 -6.8000015,-22.200005 -10.1000015,-33.400005 -1.3,-4.4 -2.6999995,-8.7 -3.99999949,-13 -0.1,-0.4 -0.2,-0.8 -0.40000001,-1.4 0.80000001,0 1.5,0 2.1,0 25,0 49.9,0 74.900001,0 1.6,0 2.2,0.5 2.6,2 6.3,21 12.6,42.000003 18.899997,63.000005 0.1,0.5 0.3,0.9 0.599999,1.7 1.500003,-5 3.000003,-9.6 4.400003,-14.3 5.1,-17.000005 10.2,-34.000005 15.3,-51.000005 0.3,-0.9 0.6,-1.3 1.6,-1.3 25.7,0 51.3,0 77,0 0.1,0 0.2,0.1 0.7,0.1 z"
         class="st0"
         inkscape:connector-curvature="0"
         style="fill:#3b3b3b" />
    </g>
  </g>
  <style
     id="style2"
     type="text/css">
			.st0{fill:#3B3B3B;}
		</style>
</svg>
