<?xml version="1.0" encoding="UTF-8" standalone="no"?>
<!-- Generator: Adobe Illustrator 21.1.0, SVG Export Plug-In . SVG Version: 6.00 Build 0)  -->

<svg
   xmlns:dc="http://purl.org/dc/elements/1.1/"
   xmlns:cc="http://creativecommons.org/ns#"
   xmlns:rdf="http://www.w3.org/1999/02/22-rdf-syntax-ns#"
   xmlns:svg="http://www.w3.org/2000/svg"
   xmlns="http://www.w3.org/2000/svg"
   xmlns:sodipodi="http://sodipodi.sourceforge.net/DTD/sodipodi-0.dtd"
   xmlns:inkscape="http://www.inkscape.org/namespaces/inkscape"
   version="1.1"
   id="Layer_1"
   x="0px"
   y="0px"
   viewBox="0 0 660 255"
   xml:space="preserve"
   sodipodi:docname="vitsi-logo.svg"
   width="660"
   height="255"
   inkscape:version="0.92.2 (5c3e80d, 2017-08-06)">
   <metadata
     id="metadata23"><rdf:RDF><cc:Work
         rdf:about=""><dc:format>image/svg+xml</dc:format><dc:type
           rdf:resource="http://purl.org/dc/dcmitype/StillImage" /><dc:title></dc:title></cc:Work></rdf:RDF></metadata><defs
     id="defs21" />
     <sodipodi:namedview
	     pagecolor="#ffffff"
	     bordercolor="#666666"
	     borderopacity="1"
	     objecttolerance="10"
	     gridtolerance="10"
	     guidetolerance="10"
	     inkscape:pageopacity="0"
	     inkscape:pageshadow="2"
	     inkscape:window-width="1920"
	     inkscape:window-height="1017"
	     id="namedview19"
	     showgrid="true"
	     fit-margin-top="0"
	     fit-margin-left="0"
	     fit-margin-right="0"
	     fit-margin-bottom="0"
	     inkscape:zoom="1.4343434"
	     inkscape:cx="458.33586"
	     inkscape:cy="111.82929"
	     inkscape:window-x="1912"
	     inkscape:window-y="-8"
	     inkscape:window-maximized="1"
	     inkscape:current-layer="Layer_1"
	     showborder="true"
     	borderlayer="false">
		</sodipodi:namedview>
		<style type="text/css" id="style2">
			.st0{fill:#3B3B3B;}
		</style>
  <path
     class="st0"
     d="m 198.1,54.164335 c -0.4,1.3 -0.7,2.5 -1.1,3.7 -2.9,9.4 -5.8,18.9 -8.6,28.3 -1.9,6.200003 -3.8,12.500003 -5.7,18.700005 -3.7,12.1 -7.4,24.2 -11.1,36.3 -5.5,18 -11,35.9 -16.5,53.9 -3.7,12.1 -7.3,24.1 -11,36.2 -2.1,6.8 -4.2,13.6 -6.3,20.4 -0.3,0.9 -0.7,1.2 -1.6,1.2 -13.6,0 -27.2,0 -40.800003,0 -10.999997,0 -21.899997,-0.3 -32.899997,-0.3 -1.5,0 -2.1,-0.5 -2.5,-1.9 -1.8,-5.9 -3.6,-11.9 -5.4,-17.8 -3.4,-11.1 -6.8,-22.2 -10.2,-33.3 -3.3,-10.7 -6.5,-21.5 -9.8,-32.3 -3.399999,-11.1 -6.8,-22.2 -10.2,-33.3 -3.3,-10.7 -6.599999,-21.5 -9.899999,-32.2 -3.4,-11.100005 -6.8000015,-22.200005 -10.1000015,-33.400005 -1.3,-4.4 -2.6999995,-8.7 -3.99999949,-13 -0.1,-0.4 -0.2,-0.8 -0.40000001,-1.4 0.80000001,0 1.5,0 2.1,0 25,0 49.9,0 74.900001,0 1.6,0 2.2,0.5 2.6,2 6.3,21 12.6,42.000003 18.899997,63.000005 0.1,0.5 0.3,0.9 0.599999,1.7 1.500003,-5 3.000003,-9.6 4.400003,-14.3 5.1,-17.000005 10.2,-34.000005 15.3,-51.000005 0.3,-0.9 0.6,-1.3 1.6,-1.3 25.7,0 51.3,0 77,0 0.1,0 0.2,0.1 0.7,0.1 z"
     id="path4"
     />
  <path
     class="st0"
     d="m 426.6,237.46434 c 5.4,-14.8 10.8,-29.3 16.2,-44 2.6,3 4.9,6.1 7.6,8.9 6.6,6.8 14.5,11.7 23.8,14 4.3,1 8.7,1.4 13.1,0 5.8,-1.8 8.7,-6.5 8.3,-11.1 -0.5,-5.3 -3.6,-9 -8.4,-10.9 -7.4,-2.9 -15,-5.5 -22.5,-8.4 -6.5,-2.6 -12.9,-5.4 -18.1,-10.2 -4.4,-4.1 -7.9,-8.8 -10.5,-14.3 -3.4,-7.2 -4.7,-14.8 -4.2,-22.6 0.6,-8.9 3.1,-17.1 8.6,-24.3 3.5,-4.5 7.7,-8 12.4,-10.9 6.5,-4.100002 13.6,-6.700002 21,-8.300002 5,-1.1 10.2,-1.6 15.3,-2.1 3.9,-0.4 7.9,-0.7 11.9,-0.6 6.1,0.1 12.2,0.4 18.3,1 11.9,1.3 23.7,3.7 34.8,8.200002 2.8,1.1 5.5,2.4 8.3,3.6 1.2,0.5 1,1.2 0.6,2.1 -2.4,5.3 -4.8,10.6 -7.1,16 -3,7 -6,14 -9.1,21 -0.2,0.5 -0.4,1 -0.8,1.7 -1.7,-1.6 -3.2,-3 -4.8,-4.4 -4.8,-4.3 -10.2,-8 -16.2,-10.3 -3.1,-1.2 -6.5,-1.5 -9.7,-2.2 -2.9,-0.6 -5.7,-0.1 -8.5,1.1 -7,3.1 -6.5,10.5 -3.2,14.8 2.9,3.7 7.2,5.1 11.4,6.5 8.9,3 18,5.3 26.7,9.1 12.1,5.3 19.8,14.3 23.5,26.8 1.8,6.2 2.4,12.5 2,18.9 -0.4,6.3 -1.7,12.4 -4.3,18.1 -3.8,8.1 -9.7,14.4 -17.2,19.3 -8.2,5.3 -17.1,8.6 -26.8,9.8 -4,0.5 -8,0.8 -12,1 -3.6,0.2 -7.3,0.3 -10.9,0 -6,-0.5 -12,-1.2 -18,-1.9 -8.6,-1.1 -17.1,-3.2 -25.4,-5.7 -8.8,-2.5 -17.5,-5.8 -26.1,-9.7 z"
     id="path6"
     />
  <path
     class="st0"
     d="m 314.6,140.06434 c -9.9,0 -19.4,0 -29.5,0 34.2,-29.8 68,-59.200005 102.1,-88.900005 0,15.1 0,29.9 0,44.800003 10.2,0 20.1,0 30.2,0 0,14.800002 0,29.400002 0,44.200002 -10,0 -20,0 -30.1,0 0,0.8 0,1.4 0,1.9 0,11.3 0,22.5 0,33.8 0,3.7 0.9,7.3 3.2,10.4 2.1,2.8 5.2,4 8.6,4.3 6,0.5 10.9,-1.8 15,-6.2 1.3,-1.4 2.5,-2.8 3.8,-4.4 0.1,0.5 0.2,0.9 0.2,1.3 0,19.7 0,39.4 0,59 0,1.3 -0.6,1.9 -1.5,2.5 -6.9,4.5 -14.4,7.7 -22.5,9.5 -7.8,1.8 -15.6,2 -23.5,1.6 -7.8,-0.4 -15.2,-2.5 -22.2,-5.9 -6.5,-3.1 -12,-7.4 -17.1,-12.5 -8.3,-8.5 -13,-18.7 -15.2,-30.3 -1.3,-7.1 -1.6,-14.3 -1.6,-21.5 0,-13.8 0,-27.6 0,-41.4 0.1,-0.6 0.1,-1.3 0.1,-2.2 z"
     id="path8"
     />
  <path
     class="st0"
     d="m 659.2,252.86434 c -24.2,0 -48.2,0 -72.4,0 0,-0.7 0,-1.3 0,-1.9 0,-49.1 -0.1,-98.1 0.1,-147.2 0,-6.000002 0.9,-12.100005 3.5,-17.700005 5,-10.5 13.3,-17.1 24.5,-20 4.6,-1.2 9.4,-0.9 14.1,-0.5 4.7,0.4 8.9,1.8 12.8,4.2 4,2.4 7.6,5.1 10.2,9.1 0.6,0.9 1.4,1.6 1.9,2.5 3.4,5.8 5.2,12.100003 5.2,18.800005 0,50.1 0,100.2 0,150.4 0.1,0.7 0.1,1.4 0.1,2.3 z"
     id="path10"
     />
  <path
     class="st0"
     d="m 276.8,252.86434 c -24.3,0 -48.2,0 -72.3,0 0,-0.7 0,-1.3 0,-1.9 0,-51.1 0,-102.1 0,-153.200002 0,-6.000003 2.2,-11.500003 5.6,-16.500003 5.3,-7.8 12.5,-12.9 21.6,-15.1 6.9,-1.6 13.8,-1.2 20.7,0.9 3.1,1 6.1,2.1 8.7,4 0.9,0.6 1.5,1.6 2.4,2.2 3.5,2.5 6.6,5.4 8.3,9.3 1.7,3.9 3.2,8.1 4,12.300003 1.5,7.500002 1,15.200002 1,22.900002 0,44.1 0,88.3 0,132.4 0,0.9 0,1.7 0,2.7 z"
     id="path12"
     />
  <path
     class="st0"
     d="m 268.4,31.564335 c -0.2,7.4 -3.3,15.4 -10.4,21.6 -10,8.7 -24.3,8.2 -33.8,-1.1 -11.2,-11 -12.3,-29.7 -2.5,-41.9 11.7,-14.5000003 32.4,-13.0000003 42.1,3.1 3.1,4.9 4.6,10.5 4.6,18.3 z"
     id="path14"
     />
  <path
     class="st0"
     d="m 649,32.364335 c -0.1,6.6 -3.3,14.6 -10.4,20.8 -10,8.6 -24.2,8.1 -33.6,-1.2 -11.2,-11 -12.3,-29.7 -2.5,-41.9 11.7,-14.6000003 32.4,-13.1000003 42.1,3.1 3,5.1 4.5,10.6 4.4,19.2 z"
     id="path16"
     />
</svg>
