<?xml version="1.0" encoding="utf-8"?>
<!-- Generator: Adobe Illustrator 21.1.0, SVG Export Plug-In . SVG Version: 6.00 Build 0)  -->
<svg version="1.1" id="Layer_1" xmlns="http://www.w3.org/2000/svg" xmlns:xlink="http://www.w3.org/1999/xlink" x="0px" y="0px"
	 viewBox="0 0 792 612" style="enable-background:new 0 0 792 612;" xml:space="preserve">
<style type="text/css">
	.st0{fill:#3B3B3B;}
</style>
<path class="st0" d="M272.2,123.4c-0.4,1.3-0.7,2.5-1.1,3.7c-2.9,9.4-5.8,18.9-8.6,28.3c-1.9,6.2-3.8,12.5-5.7,18.7
	c-3.7,12.1-7.4,24.2-11.1,36.3c-5.5,18-11,35.9-16.5,53.9c-3.7,12.1-7.3,24.1-11,36.2c-2.1,6.8-4.2,13.6-6.3,20.4
	c-0.3,0.9-0.7,1.2-1.6,1.2c-13.6,0-27.2,0-40.8,0c-11,0-21.9-0.3-32.9-0.3c-1.5,0-2.1-0.5-2.5-1.9c-1.8-5.9-3.6-11.9-5.4-17.8
	c-3.4-11.1-6.8-22.2-10.2-33.3c-3.3-10.7-6.5-21.5-9.8-32.3c-3.4-11.1-6.8-22.2-10.2-33.3c-3.3-10.7-6.6-21.5-9.9-32.2
	c-3.4-11.1-6.8-22.2-10.1-33.4c-1.3-4.4-2.7-8.7-4-13c-0.1-0.4-0.2-0.8-0.4-1.4c0.8,0,1.5,0,2.1,0c25,0,49.9,0,74.9,0
	c1.6,0,2.2,0.5,2.6,2c6.3,21,12.6,42,18.9,63c0.1,0.5,0.3,0.9,0.6,1.7c1.5-5,3-9.6,4.4-14.3c5.1-17,10.2-34,15.3-51
	c0.3-0.9,0.6-1.3,1.6-1.3c25.7,0,51.3,0,77,0C271.6,123.3,271.7,123.4,272.2,123.4z"/>
<path class="st0" d="M500.7,306.7c5.4-14.8,10.8-29.3,16.2-44c2.6,3,4.9,6.1,7.6,8.9c6.6,6.8,14.5,11.7,23.8,14
	c4.3,1,8.7,1.4,13.1,0c5.8-1.8,8.7-6.5,8.3-11.1c-0.5-5.3-3.6-9-8.4-10.9c-7.4-2.9-15-5.5-22.5-8.4c-6.5-2.6-12.9-5.4-18.1-10.2
	c-4.4-4.1-7.9-8.8-10.5-14.3c-3.4-7.2-4.7-14.8-4.2-22.6c0.6-8.9,3.1-17.1,8.6-24.3c3.5-4.5,7.7-8,12.4-10.9
	c6.5-4.1,13.6-6.7,21-8.3c5-1.1,10.2-1.6,15.3-2.1c3.9-0.4,7.9-0.7,11.9-0.6c6.1,0.1,12.2,0.4,18.3,1c11.9,1.3,23.7,3.7,34.8,8.2
	c2.8,1.1,5.5,2.4,8.3,3.6c1.2,0.5,1,1.2,0.6,2.1c-2.4,5.3-4.8,10.6-7.1,16c-3,7-6,14-9.1,21c-0.2,0.5-0.4,1-0.8,1.7
	c-1.7-1.6-3.2-3-4.8-4.4c-4.8-4.3-10.2-8-16.2-10.3c-3.1-1.2-6.5-1.5-9.7-2.2c-2.9-0.6-5.7-0.1-8.5,1.1c-7,3.1-6.5,10.5-3.2,14.8
	c2.9,3.7,7.2,5.1,11.4,6.5c8.9,3,18,5.3,26.7,9.1c12.1,5.3,19.8,14.3,23.5,26.8c1.8,6.2,2.4,12.5,2,18.9c-0.4,6.3-1.7,12.4-4.3,18.1
	c-3.8,8.1-9.7,14.4-17.2,19.3c-8.2,5.3-17.1,8.6-26.8,9.8c-4,0.5-8,0.8-12,1c-3.6,0.2-7.3,0.3-10.9,0c-6-0.5-12-1.2-18-1.9
	c-8.6-1.1-17.1-3.2-25.4-5.7C518,313.9,509.3,310.6,500.7,306.7z"/>
<path class="st0" d="M388.7,209.3c-9.9,0-19.4,0-29.5,0c34.2-29.8,68-59.2,102.1-88.9c0,15.1,0,29.9,0,44.8c10.2,0,20.1,0,30.2,0
	c0,14.8,0,29.4,0,44.2c-10,0-20,0-30.1,0c0,0.8,0,1.4,0,1.9c0,11.3,0,22.5,0,33.8c0,3.7,0.9,7.3,3.2,10.4c2.1,2.8,5.2,4,8.6,4.3
	c6,0.5,10.9-1.8,15-6.2c1.3-1.4,2.5-2.8,3.8-4.4c0.1,0.5,0.2,0.9,0.2,1.3c0,19.7,0,39.4,0,59c0,1.3-0.6,1.9-1.5,2.5
	c-6.9,4.5-14.4,7.7-22.5,9.5c-7.8,1.8-15.6,2-23.5,1.6c-7.8-0.4-15.2-2.5-22.2-5.9c-6.5-3.1-12-7.4-17.1-12.5
	c-8.3-8.5-13-18.7-15.2-30.3c-1.3-7.1-1.6-14.3-1.6-21.5c0-13.8,0-27.6,0-41.4C388.7,210.9,388.7,210.2,388.7,209.3z"/>
<path class="st0" d="M733.3,322.1c-24.2,0-48.2,0-72.4,0c0-0.7,0-1.3,0-1.9c0-49.1-0.1-98.1,0.1-147.2c0-6,0.9-12.1,3.5-17.7
	c5-10.5,13.3-17.1,24.5-20c4.6-1.2,9.4-0.9,14.1-0.5c4.7,0.4,8.9,1.8,12.8,4.2c4,2.4,7.6,5.1,10.2,9.1c0.6,0.9,1.4,1.6,1.9,2.5
	c3.4,5.8,5.2,12.1,5.2,18.8c0,50.1,0,100.2,0,150.4C733.3,320.5,733.3,321.2,733.3,322.1z"/>
<path class="st0" d="M350.9,322.1c-24.3,0-48.2,0-72.3,0c0-0.7,0-1.3,0-1.9c0-51.1,0-102.1,0-153.2c0-6,2.2-11.5,5.6-16.5
	c5.3-7.8,12.5-12.9,21.6-15.1c6.9-1.6,13.8-1.2,20.7,0.9c3.1,1,6.1,2.1,8.7,4c0.9,0.6,1.5,1.6,2.4,2.2c3.5,2.5,6.6,5.4,8.3,9.3
	c1.7,3.9,3.2,8.1,4,12.3c1.5,7.5,1,15.2,1,22.9c0,44.1,0,88.3,0,132.4C350.9,320.3,350.9,321.1,350.9,322.1z"/>
<path class="st0" d="M342.5,100.8c-0.2,7.4-3.3,15.4-10.4,21.6c-10,8.7-24.3,8.2-33.8-1.1c-11.2-11-12.3-29.7-2.5-41.9
	c11.7-14.5,32.4-13,42.1,3.1C341,87.4,342.5,93,342.5,100.8z"/>
<path class="st0" d="M723.1,101.6c-0.1,6.6-3.3,14.6-10.4,20.8c-10,8.6-24.2,8.1-33.6-1.2c-11.2-11-12.3-29.7-2.5-41.9
	c11.7-14.6,32.4-13.1,42.1,3.1C721.7,87.5,723.2,93,723.1,101.6z"/>
</svg>
